<?xml version="1.0" standalone="no"?>
<!DOCTYPE svg PUBLIC "-//W3C//DTD SVG 20010904//EN"
 "http://www.w3.org/TR/2001/REC-SVG-20010904/DTD/svg10.dtd">
<svg version="1.0" xmlns="http://www.w3.org/2000/svg"
 width="1085.000000pt" height="303.000000pt" viewBox="0 0 1085.000000 303.000000"
 preserveAspectRatio="xMidYMid meet">

<g transform="translate(0.000000,303.000000) scale(0.100000,-0.100000)"
fill="#000000" stroke="none">
<path d="M2315 2844 c-16 -3 -39 -9 -50 -14 -93 -43 -144 -66 -165 -75 -32
-13 -221 -215 -201 -215 5 0 -6 -39 -25 -87 -55 -136 -79 -144 -163 -51 -113
125 -226 173 -392 166 -99 -4 -279 -51 -279 -73 0 -6 -25 -35 -56 -65 -62 -61
-82 -95 -113 -189 -25 -76 -28 -200 -7 -276 22 -77 50 -155 57 -155 3 0 31
-25 62 -55 61 -59 166 -132 204 -141 17 -5 23 -13 23 -35 0 -27 -3 -29 -39
-29 -21 0 -58 7 -82 16 -24 8 -73 18 -107 21 l-64 6 60 -119 c33 -66 67 -126
76 -133 20 -17 41 -9 41 15 0 16 9 19 63 22 l62 3 0 -306 0 -305 76 0 77 0 -6
-71 c-3 -39 -7 -73 -9 -74 -2 -2 -86 -18 -188 -35 l-184 -33 -54 19 c-53 18
-56 17 -195 -6 l-142 -23 9 -80 10 -79 65 7 c118 11 233 44 266 75 32 31 75
44 316 100 l136 31 13 85 13 84 85 0 85 0 -6 416 -7 416 123 -7 c126 -7 148
-12 127 -25 -10 -6 3 -45 48 -151 33 -79 77 -188 98 -242 27 -71 41 -97 54
-97 13 0 42 60 120 248 57 136 104 248 104 248 1 1 58 5 129 9 l127 7 0 -405
c0 -360 2 -406 16 -411 9 -3 107 -6 220 -6 l204 0 2 222 3 223 115 -3 c128 -3
122 -1 334 -129 49 -30 95 -52 102 -49 12 4 14 73 14 388 0 211 -3 393 -6 406
-4 14 -14 22 -28 22 -24 0 -178 -93 -175 -106 1 -5 -27 -23 -62 -41 -61 -31
-69 -33 -176 -33 l-113 0 -3 -217 c-2 -213 -2 -211 -5 65 l-2 284 -37 -2 c-21
-1 -52 -2 -69 -1 l-30 1 54 56 c94 97 152 250 152 402 0 103 -12 154 -61 261
-32 68 -52 96 -111 152 -72 69 -168 127 -255 155 -48 15 -222 26 -278 18z
m241 -322 c88 -45 154 -154 154 -253 0 -54 -37 -145 -76 -188 -42 -47 -132
-93 -192 -98 -76 -7 -168 31 -239 97 l-58 55 0 120 0 120 38 52 c32 45 100 98
147 117 8 3 53 4 100 3 63 -3 96 -9 126 -25z m-1110 -210 c58 -26 62 -30 89
-92 15 -36 30 -81 32 -101 11 -79 -80 -207 -162 -228 -55 -14 -115 -14 -152 0
-40 15 -102 77 -124 124 -47 102 -7 236 87 291 81 48 132 49 230 6z m475 -394
c6 -11 26 -37 45 -58 l34 -38 -27 -7 c-28 -7 -203 -8 -210 -2 -6 7 50 101 70
118 25 20 74 13 88 -13z m885 -979 c9 -16 -31 -53 -50 -46 -9 4 -16 18 -16 32
0 21 5 25 29 25 17 0 33 -5 37 -11z"/>
<path d="M2356 2465 c-11 -30 -6 -54 13 -65 27 -14 50 -3 57 27 8 28 -1 39
-37 48 -19 5 -28 2 -33 -10z"/>
<path d="M2516 2366 c-13 -47 -8 -57 27 -54 28 3 32 7 32 32 0 24 -5 31 -27
37 -22 6 -27 3 -32 -15z"/>
<path d="M2240 2325 c-10 -12 -10 -21 -2 -40 13 -28 43 -33 62 -10 7 8 16 12
21 9 5 -3 9 7 9 21 0 14 -4 24 -9 20 -5 -3 -12 -1 -16 5 -9 15 -51 12 -65 -5z"/>
<path d="M2501 2207 c-16 -16 -14 -52 4 -67 17 -14 51 -5 59 16 13 35 -38 76
-63 51z"/>
<path d="M2327 2175 c-19 -13 -23 -60 -6 -70 5 -4 21 -4 35 -1 19 5 24 13 24
36 0 36 -27 54 -53 35z"/>
<path d="M1290 2245 c0 -22 4 -26 23 -23 14 2 22 10 22 23 0 13 -8 21 -22 23
-19 3 -23 -1 -23 -23z"/>
<path d="M1416 2202 c-3 -3 -6 -16 -6 -29 0 -18 5 -23 25 -23 20 0 25 5 25 24
0 22 -31 42 -44 28z"/>
<path d="M1190 2148 c0 -23 18 -41 34 -35 9 4 16 16 16 27 0 15 -7 20 -25 20
-14 0 -25 -6 -25 -12z"/>
<path d="M1397 2053 c-4 -3 -7 -15 -7 -25 0 -30 54 -21 58 10 3 17 -1 22 -21
22 -13 0 -27 -3 -30 -7z"/>
<path d="M1257 2034 c-14 -14 -7 -43 12 -54 29 -15 33 -13 29 22 -3 31 -25 48
-41 32z"/>
<path d="M9790 2029 c0 -5 -9 -9 -20 -9 -11 0 -62 -14 -114 -30 -117 -38 -175
-84 -205 -166 -28 -74 -27 -138 4 -200 27 -55 81 -112 111 -118 10 -3 39 -13
64 -24 25 -11 115 -35 200 -52 256 -53 283 -68 278 -152 -2 -42 -8 -55 -31
-72 -25 -18 -45 -21 -154 -24 -69 -2 -141 -1 -159 3 -41 7 -91 56 -115 112
l-18 43 -106 0 c-119 0 -115 4 -87 -88 35 -112 100 -180 213 -224 65 -25 281
-36 396 -20 126 18 236 91 269 179 21 55 15 160 -13 224 -38 86 -112 117 -473
196 -137 30 -180 55 -180 108 0 81 70 120 215 120 138 -1 206 -40 224 -128 l7
-32 107 -3 107 -3 0 33 c-1 44 -40 137 -78 186 -41 51 -152 105 -260 127 -45
9 -89 15 -96 12 -7 -3 -30 -2 -50 3 -21 4 -36 4 -36 -1z"/>
<path d="M5275 2001 c-139 -40 -224 -108 -276 -220 -36 -75 -69 -199 -69 -258
0 -81 56 -299 86 -334 8 -8 14 -20 15 -25 1 -17 104 -95 169 -127 l65 -32 170
0 170 0 63 34 c122 66 196 152 232 269 16 50 20 93 20 196 0 183 -25 261 -121
377 -41 50 -133 101 -223 125 -71 19 -227 17 -301 -5z m313 -235 c55 -60 82
-116 90 -190 15 -129 -20 -259 -84 -316 -46 -40 -102 -53 -202 -47 -78 5 -86
7 -118 38 -105 102 -131 320 -53 443 15 25 52 61 81 80 51 35 55 36 149 36
l96 0 41 -44z"/>
<path d="M6355 1995 c-122 -36 -129 -40 -188 -100 -94 -97 -139 -217 -139
-376 0 -135 16 -198 81 -326 42 -83 40 -81 177 -148 154 -75 338 -69 505 15
66 34 126 99 168 185 41 82 50 132 51 259 0 118 -16 199 -55 276 -99 195 -356
288 -600 215z m332 -239 c44 -50 49 -62 68 -154 13 -61 18 -111 14 -133 -29
-144 -31 -148 -69 -192 -51 -57 -100 -72 -216 -64 -80 5 -88 7 -119 37 -38 37
-80 110 -90 158 -3 17 -11 32 -17 32 -7 0 -9 29 -6 83 7 118 52 199 147 259
41 26 53 28 142 28 l98 0 48 -54z"/>
<path d="M3670 1542 c0 -258 3 -483 6 -500 l6 -31 108 -3 c60 -2 106 1 103 5
-3 5 -2 153 2 329 4 186 11 315 16 307 5 -8 9 -23 9 -35 0 -20 44 -127 115
-279 64 -138 105 -239 105 -260 0 -11 7 -31 16 -43 13 -19 24 -22 77 -22 l62
1 30 67 c16 37 35 73 42 80 7 7 13 23 13 34 0 20 67 186 140 348 21 47 42 94
47 105 4 11 9 -123 11 -312 l2 -333 110 0 110 0 0 505 0 505 -38 0 c-22 0 -86
-3 -144 -6 l-106 -7 -40 -91 c-22 -50 -56 -129 -75 -176 -69 -170 -154 -370
-159 -376 -7 -6 -58 124 -58 148 0 9 -6 23 -13 30 -13 13 -55 108 -106 238
-16 41 -44 109 -62 150 -18 41 -34 76 -34 76 0 1 -66 5 -147 9 l-148 7 0 -470z"/>
<path d="M7102 1910 c16 -52 37 -109 46 -127 9 -18 13 -35 10 -39 -4 -3 8 -36
26 -73 18 -36 81 -199 141 -363 l107 -296 52 -4 c28 -2 80 -2 116 0 l66 4 26
72 c14 39 58 161 98 271 40 110 78 214 85 230 8 17 20 53 28 81 8 27 24 72 35
100 24 57 75 224 70 229 -4 4 -84 7 -160 6 l-56 -1 -53 -157 c-29 -87 -85
-245 -124 -351 l-72 -193 -31 93 c-17 51 -47 138 -67 193 -20 55 -49 138 -64
185 -15 47 -40 117 -55 157 l-29 72 -112 3 -111 3 28 -95z"/>
<path d="M8550 1504 l0 -504 158 0 c87 0 261 3 385 7 l227 6 0 89 0 88 -277 0
-278 0 2 62 c1 35 2 87 2 116 l1 52 240 0 240 0 0 96 0 95 -117 -1 c-65 -1
-173 -1 -240 -1 l-123 1 0 105 0 105 133 1 c72 1 192 1 265 -1 l132 -2 0 91 0
91 -137 1 c-76 1 -245 3 -375 4 l-238 3 0 -504z"/>
<path d="M8138 1500 l-3 -500 110 0 110 0 -3 500 -2 500 -105 0 -105 0 -2
-500z"/>
<path d="M1760 1218 c0 -35 3 -147 7 -250 l6 -188 114 0 113 0 -20 20 c-11 11
-20 25 -20 31 0 6 -16 47 -35 91 -20 44 -33 88 -30 97 2 9 -5 32 -17 51 -12
19 -41 74 -64 123 -24 48 -46 87 -49 87 -3 0 -5 -28 -5 -62z"/>
<path d="M2212 1057 c-44 -100 -88 -206 -96 -234 l-15 -53 105 0 105 0 -7 233
c-4 127 -8 233 -9 234 -1 2 -38 -79 -83 -180z"/>
</g>
</svg>
