<?xml version="1.0" standalone="no"?>
<!DOCTYPE svg PUBLIC "-//W3C//DTD SVG 20010904//EN"
 "http://www.w3.org/TR/2001/REC-SVG-20010904/DTD/svg10.dtd">
<svg version="1.0" xmlns="http://www.w3.org/2000/svg"
 width="311.000000pt" height="303.000000pt" viewBox="0 0 311.000000 303.000000"
 preserveAspectRatio="xMidYMid meet">

<g transform="translate(0.000000,303.000000) scale(0.100000,-0.100000)"
fill="#000000" stroke="none">
<path d="M1795 2844 c-16 -3 -39 -9 -50 -14 -93 -43 -144 -66 -165 -75 -32
-13 -221 -215 -201 -215 5 0 -6 -39 -25 -87 -55 -136 -79 -144 -163 -51 -113
125 -226 173 -392 166 -99 -4 -279 -51 -279 -73 0 -6 -25 -35 -56 -65 -62 -61
-82 -95 -113 -189 -25 -76 -28 -200 -7 -276 22 -77 50 -155 57 -155 3 0 31
-25 62 -55 61 -59 166 -132 204 -141 17 -5 23 -13 23 -35 0 -27 -3 -29 -39
-29 -21 0 -58 7 -82 16 -24 8 -73 18 -107 21 l-64 6 60 -119 c33 -66 67 -126
76 -133 20 -17 41 -9 41 15 0 16 9 19 63 22 l62 3 0 -306 0 -305 76 0 77 0 -6
-71 c-3 -39 -7 -73 -9 -74 -2 -2 -86 -18 -188 -35 l-184 -33 -54 19 c-53 18
-56 17 -195 -6 l-142 -23 9 -80 10 -79 65 7 c118 11 233 44 266 75 32 31 75
44 316 100 l136 31 13 85 13 84 85 0 85 0 -6 416 -7 416 123 -7 c126 -7 148
-12 127 -25 -10 -6 3 -45 48 -151 33 -79 77 -188 98 -242 27 -71 41 -97 54
-97 13 0 42 60 120 248 57 136 104 248 104 248 1 1 58 5 129 9 l127 7 0 -405
c0 -360 2 -406 16 -411 9 -3 107 -6 220 -6 l204 0 2 222 3 223 115 -3 c128 -3
122 -1 334 -129 49 -30 95 -52 102 -49 12 4 14 73 14 388 0 211 -3 393 -6 406
-4 14 -14 22 -28 22 -24 0 -178 -93 -175 -106 1 -5 -27 -23 -62 -41 -61 -31
-69 -33 -176 -33 l-113 0 -3 -217 c-2 -213 -2 -211 -5 65 l-2 284 -37 -2 c-21
-1 -52 -2 -69 -1 l-30 1 54 56 c94 97 152 250 152 402 0 103 -12 154 -61 261
-32 68 -52 96 -111 152 -72 69 -168 127 -255 155 -48 15 -222 26 -278 18z
m241 -322 c88 -45 154 -154 154 -253 0 -54 -37 -145 -76 -188 -42 -47 -132
-93 -192 -98 -76 -7 -168 31 -239 97 l-58 55 0 120 0 120 38 52 c32 45 100 98
147 117 8 3 53 4 100 3 63 -3 96 -9 126 -25z m-1110 -210 c58 -26 62 -30 89
-92 15 -36 30 -81 32 -101 11 -79 -80 -207 -162 -228 -55 -14 -115 -14 -152 0
-40 15 -102 77 -124 124 -47 102 -7 236 87 291 81 48 132 49 230 6z m475 -394
c6 -11 26 -37 45 -58 l34 -38 -27 -7 c-28 -7 -203 -8 -210 -2 -6 7 50 101 70
118 25 20 74 13 88 -13z m885 -979 c9 -16 -31 -53 -50 -46 -9 4 -16 18 -16 32
0 21 5 25 29 25 17 0 33 -5 37 -11z"/>
<path d="M1836 2465 c-11 -30 -6 -54 13 -65 27 -14 50 -3 57 27 8 28 -1 39
-37 48 -19 5 -28 2 -33 -10z"/>
<path d="M1996 2366 c-13 -47 -8 -57 27 -54 28 3 32 7 32 32 0 24 -5 31 -27
37 -22 6 -27 3 -32 -15z"/>
<path d="M1720 2325 c-10 -12 -10 -21 -2 -40 13 -28 43 -33 62 -10 7 8 16 12
21 9 5 -3 9 7 9 21 0 14 -4 24 -9 20 -5 -3 -12 -1 -16 5 -9 15 -51 12 -65 -5z"/>
<path d="M1981 2207 c-16 -16 -14 -52 4 -67 17 -14 51 -5 59 16 13 35 -38 76
-63 51z"/>
<path d="M1807 2175 c-19 -13 -23 -60 -6 -70 5 -4 21 -4 35 -1 19 5 24 13 24
36 0 36 -27 54 -53 35z"/>
<path d="M770 2245 c0 -22 4 -26 23 -23 14 2 22 10 22 23 0 13 -8 21 -22 23
-19 3 -23 -1 -23 -23z"/>
<path d="M896 2202 c-3 -3 -6 -16 -6 -29 0 -18 5 -23 25 -23 20 0 25 5 25 24
0 22 -31 42 -44 28z"/>
<path d="M670 2148 c0 -23 18 -41 34 -35 9 4 16 16 16 27 0 15 -7 20 -25 20
-14 0 -25 -6 -25 -12z"/>
<path d="M877 2053 c-4 -3 -7 -15 -7 -25 0 -30 54 -21 58 10 3 17 -1 22 -21
22 -13 0 -27 -3 -30 -7z"/>
<path d="M737 2034 c-14 -14 -7 -43 12 -54 29 -15 33 -13 29 22 -3 31 -25 48
-41 32z"/>
<path d="M1240 1218 c0 -35 3 -147 7 -250 l6 -188 114 0 113 0 -20 20 c-11 11
-20 25 -20 31 0 6 -16 47 -35 91 -20 44 -33 88 -30 97 2 9 -5 32 -17 51 -12
19 -41 74 -64 123 -24 48 -46 87 -49 87 -3 0 -5 -28 -5 -62z"/>
<path d="M1692 1057 c-44 -100 -88 -206 -96 -234 l-15 -53 105 0 105 0 -7 233
c-4 127 -8 233 -9 234 -1 2 -38 -79 -83 -180z"/>
</g>
</svg>
